<?xml version="1.0" encoding="utf-8"?>
<!-- Generator: Adobe Illustrator 25.2.3, SVG Export Plug-In . SVG Version: 6.00 Build 0)  -->
<svg version="1.1" id="レイヤー_1" xmlns="http://www.w3.org/2000/svg" xmlns:xlink="http://www.w3.org/1999/xlink" x="0px"
	 y="0px" viewBox="0 0 595.28 72.09" style="enable-background:new 0 0 595.28 72.09;" xml:space="preserve">
<style type="text/css">
	.st0{fill:none;stroke:#C30D23;stroke-width:1.4173;stroke-miterlimit:10;}
	.st1{fill:none;stroke:#C30D23;stroke-miterlimit:10;}
	.st2{fill:#C30D23;}
	.st3{font-family:'KozGoPr6N-Regular-83pv-RKSJ-H';}
	.st4{font-size:42.5197px;}
</style>
<g>
	<ellipse class="st0" cx="40.93" cy="36.05" rx="22.44" ry="21.75"/>
	
		<rect x="19.2" y="36.02" transform="matrix(-1.836970e-16 1 -1 -1.836970e-16 76.9979 -4.9039)" class="st1" width="43.5" height="0.05"/>
	<rect x="22" y="24.03" class="st0" width="37.95" height="0"/>
	<rect x="21.95" y="47.97" class="st0" width="37.95" height="0"/>
	<rect x="18.49" y="35.66" class="st2" width="12.18" height="0.77"/>
	
		<rect x="43.38" y="27.61" transform="matrix(-1.836970e-16 1 -1 -1.836970e-16 79.4258 -24.1567)" class="st1" width="16.82" height="0.05"/>
	<rect x="27.27" y="18.79" class="st1" width="27.32" height="0"/>
	
		<rect x="22.23" y="27.61" transform="matrix(-1.836970e-16 1 -1 -1.836970e-16 58.2784 -3.0093)" class="st1" width="16.82" height="0.05"/>
	<rect x="51.77" y="35.66" class="st2" width="11.92" height="0.77"/>
</g>
<text transform="matrix(1 0 0 1 77.9112 53.0694)" class="st3 st4">NAKANISHI</text>
</svg>

