<?xml version="1.0" encoding="iso-8859-1"?>
<!-- Generator: Adobe Illustrator 25.2.3, SVG Export Plug-In . SVG Version: 6.00 Build 0)  -->
<svg version="1.1" id="&#x30EC;&#x30A4;&#x30E4;&#x30FC;_1"
	 xmlns="http://www.w3.org/2000/svg" xmlns:xlink="http://www.w3.org/1999/xlink" x="0px" y="0px" viewBox="0 0 595.3 72.1"
	 style="enable-background:new 0 0 595.3 72.1;" xml:space="preserve">
<ellipse style="fill:none;stroke:#C30D23;stroke-width:1.42;stroke-miterlimit:10;" cx="40.9" cy="36" rx="22.4" ry="21.8"/>
<rect x="40.9" y="14.3" style="fill:none;stroke:#C30D23;stroke-miterlimit:10;" width="0" height="43.5"/>
<polygon style="fill:none;stroke:#C30D23;stroke-width:1.42;stroke-miterlimit:10;" points="22,24 60,24 60,24 "/>
<polygon style="fill:none;stroke:#C30D23;stroke-width:1.42;stroke-miterlimit:10;" points="22,48 59.9,48 59.9,48 "/>
<rect x="18.5" y="35.7" style="fill:#C30D23;" width="12.2" height="0.8"/>
<rect x="51.8" y="19.2" style="fill:none;stroke:#C30D23;stroke-miterlimit:10;" width="0" height="16.8"/>
<polygon style="fill:none;stroke:#C30D23;stroke-miterlimit:10;" points="27.3,18.8 54.6,18.8 54.6,18.8 "/>
<rect x="30.6" y="19.2" style="fill:none;stroke:#C30D23;stroke-miterlimit:10;" width="0" height="16.8"/>
<rect x="51.8" y="35.7" style="fill:#C30D23;" width="11.9" height="0.8"/>
<path style="fill:#A71F2A;" d="M76.4,26.6h6.1c0.9,0,1.9,0.1,2.8,0.4c0.8,0.2,1.6,0.6,2.3,1.1c0.6,0.5,1.1,1,1.5,1.7
	s0.6,1.6,0.6,2.4s-0.2,1.6-0.5,2.3s-0.8,1.2-1.4,1.6c-0.6,0.4-1.3,0.7-2,1c-0.8,0.2-1.5,0.3-2.3,0.3h-1.1c-0.4,0-0.7,0-1.1-0.1
	c-0.3-0.1-0.6-0.1-0.9-0.1s-0.5-0.1-0.7-0.1V46h-3.3V26.6z M79.7,35.9l1.2,0.3c0.4,0.1,0.9,0.1,1.3,0.1c0.6,0,1.2-0.1,1.8-0.3
	c0.5-0.2,1-0.5,1.3-0.9s0.6-0.8,0.8-1.3c0.2-0.5,0.3-1.1,0.3-1.6c0-0.6-0.1-1.2-0.3-1.8c-0.2-0.5-0.5-1-0.9-1.3
	c-0.4-0.4-0.9-0.7-1.4-0.9C83.2,28,82.6,28,82,28h-2.3V35.9z"/>
<path style="fill:#72859F;" d="M103.5,46.4c-1.4,0-2.9-0.3-4.2-0.8c-1.3-0.5-2.4-1.3-3.4-2.2s-1.8-2.1-2.3-3.3
	c-0.5-1.3-0.8-2.6-0.8-4c0-0.9,0.1-1.8,0.4-2.7c0.2-0.9,0.6-1.7,1.1-2.4c0.5-0.7,1.1-1.4,1.7-2c0.7-0.6,1.4-1.1,2.2-1.6
	c0.8-0.5,1.7-0.8,2.6-1c1-0.2,1.9-0.4,2.9-0.4s2,0.1,2.9,0.4c0.9,0.2,1.8,0.6,2.6,1c0.8,0.4,1.5,1,2.2,1.6c0.6,0.6,1.2,1.3,1.7,2
	s0.9,1.5,1.1,2.4s0.4,1.8,0.4,2.7s-0.1,1.8-0.4,2.7c-0.2,0.9-0.6,1.7-1.1,2.4c-0.5,0.8-1.1,1.5-1.7,2.1s-1.4,1.2-2.2,1.6
	c-0.8,0.5-1.7,0.8-2.6,1C105.6,46.2,104.6,46.4,103.5,46.4z M103.5,45.4c1,0,2-0.2,2.9-0.7s1.6-1.1,2.2-1.9c0.6-0.9,1.1-1.9,1.3-2.9
	c0.3-1.2,0.4-2.5,0.4-3.7s-0.1-2.5-0.4-3.7c-0.2-1-0.7-2-1.3-2.9c-0.6-0.8-1.3-1.4-2.2-1.9c-0.9-0.4-1.9-0.7-2.9-0.7s-2.1,0.2-3,0.7
	c-0.9,0.4-1.6,1.1-2.1,1.9c-0.6,0.9-1.1,1.9-1.3,2.9c-0.3,1.2-0.4,2.5-0.4,3.7s0.1,2.5,0.4,3.7c0.2,1,0.7,2,1.3,2.9
	c0.5,0.8,1.3,1.4,2.1,1.9C101.4,45.2,102.5,45.5,103.5,45.4z"/>
<path style="fill:#E0D0C0;" d="M118.5,26.6h6.7c1,0,2,0.1,3,0.4c0.8,0.2,1.5,0.5,2.2,1c0.6,0.4,1,1,1.3,1.6s0.4,1.3,0.4,2
	c0,0.6-0.1,1.2-0.3,1.7s-0.5,1-1,1.4c-0.4,0.4-0.9,0.8-1.5,1.1s-1.2,0.5-1.9,0.7l7,9.4h-3.8l-6.7-9.1h-2.3v9.1h-3.3V26.6H118.5z
	 M121.8,35.9h1.9c0.7,0,1.4-0.1,2-0.3s1.1-0.5,1.6-0.8c0.4-0.4,0.8-0.8,1.1-1.3s0.4-1.1,0.4-1.7c0-0.5-0.1-1.1-0.3-1.6
	c-0.2-0.4-0.5-0.9-0.8-1.2c-0.4-0.3-0.8-0.6-1.3-0.8c-0.5-0.2-1.1-0.3-1.6-0.3h-2.9L121.8,35.9L121.8,35.9z"/>
<path style="fill:#CC9F54;" d="M151.1,26.6v1.3h-7V46h-3.3V27.8h-7v-1.3h17.3V26.6z"/>
<path d="M166.8,26.6v1.3h-9.4v6.9h6.8V36h-6.8v9.9h-3.3V26.6H166.8z"/>
<path d="M179.3,46.4c-1.4,0-2.9-0.3-4.2-0.8s-2.4-1.3-3.4-2.2s-1.8-2.1-2.3-3.3c-0.5-1.3-0.8-2.6-0.8-4c0-0.9,0.1-1.8,0.4-2.7
	c0.2-0.9,0.6-1.7,1.1-2.4c0.5-0.7,1.1-1.4,1.7-2c0.7-0.6,1.4-1.1,2.2-1.6s1.7-0.8,2.6-1c1-0.2,1.9-0.4,2.9-0.4s2,0.1,2.9,0.4
	c0.9,0.2,1.8,0.6,2.6,1s1.5,1,2.2,1.6c0.6,0.6,1.2,1.3,1.7,2s0.9,1.5,1.1,2.4c0.2,0.9,0.4,1.8,0.4,2.7s-0.1,1.8-0.4,2.7
	c-0.2,0.9-0.6,1.7-1.1,2.4c-0.5,0.8-1.1,1.5-1.7,2.1c-0.6,0.6-1.4,1.2-2.2,1.6c-0.8,0.5-1.7,0.8-2.6,1
	C181.4,46.3,180.4,46.4,179.3,46.4z M179.3,45.4c1,0,2-0.2,2.9-0.7s1.6-1.1,2.2-1.9c0.6-0.9,1.1-1.9,1.3-2.9
	c0.3-1.2,0.4-2.5,0.4-3.7s-0.1-2.5-0.4-3.7c-0.2-1-0.7-2-1.3-2.9c-0.6-0.8-1.3-1.4-2.2-1.9c-0.9-0.4-1.9-0.7-2.9-0.7s-2.1,0.2-3,0.7
	c-0.9,0.4-1.6,1.1-2.1,1.9c-0.6,0.9-1.1,1.9-1.3,2.9c-0.3,1.2-0.4,2.5-0.4,3.7s0.1,2.5,0.4,3.7c0.2,1,0.7,2,1.3,2.9
	c0.5,0.8,1.3,1.4,2.1,1.9C177.2,45.2,178.3,45.4,179.3,45.4z"/>
<path d="M194.4,26.6h3.3v18.1h9.7V46h-13V26.6z"/>
<path d="M210.3,26.6h3.3v19.3h-3.3V26.6z"/>
<path d="M228.6,46.4c-1.4,0-2.9-0.3-4.2-0.8s-2.4-1.3-3.4-2.2s-1.8-2.1-2.3-3.3c-0.5-1.3-0.8-2.6-0.8-4c0-0.9,0.1-1.8,0.4-2.7
	c0.2-0.9,0.6-1.7,1.1-2.4c0.5-0.7,1.1-1.4,1.7-2c0.7-0.6,1.4-1.1,2.2-1.6s1.7-0.8,2.6-1c1-0.2,1.9-0.4,2.9-0.4s2,0.1,2.9,0.4
	c0.9,0.2,1.8,0.6,2.6,1s1.5,1,2.2,1.6c0.6,0.6,1.2,1.3,1.7,2s0.9,1.5,1.1,2.4c0.2,0.9,0.4,1.8,0.4,2.7s-0.1,1.8-0.4,2.7
	c-0.2,0.9-0.6,1.7-1.1,2.4c-0.5,0.8-1.1,1.5-1.7,2.1c-0.6,0.6-1.4,1.2-2.2,1.6c-0.8,0.5-1.7,0.8-2.6,1
	C230.7,46.2,229.7,46.4,228.6,46.4z M228.6,45.4c1,0,2-0.2,2.9-0.7s1.6-1.1,2.2-1.9c0.6-0.9,1.1-1.9,1.3-2.9
	c0.3-1.2,0.4-2.5,0.4-3.7s-0.1-2.5-0.4-3.7c-0.2-1-0.7-2-1.3-2.9c-0.6-0.8-1.3-1.4-2.2-1.9c-0.9-0.4-1.9-0.7-2.9-0.7s-2.1,0.2-3,0.7
	c-0.9,0.4-1.6,1.1-2.1,1.9c-0.6,0.9-1.1,1.9-1.3,2.9c-0.3,1.2-0.4,2.5-0.4,3.7s0.1,2.5,0.4,3.7c0.2,1,0.7,2,1.3,2.9
	c0.5,0.8,1.3,1.4,2.1,1.9C226.5,45.2,227.6,45.4,228.6,45.4z"/>
</svg>
